<?xml version="1.0" encoding="UTF-8"?>
<svg xmlns="http://www.w3.org/2000/svg" viewBox="0 0 720 200">
  <rect width="720" height="200" fill="#f4f6fb" rx="12"/>
  <text x="24" y="40" fill="#1a2332" font-size="14" font-weight="600" font-family="Segoe UI,Arial,sans-serif">Balance Carryforward flow</text>
  <rect x="24" y="70" width="120" height="60" fill="#fff" stroke="#0f62fe" rx="8"/>
  <text x="52" y="105" fill="#0f62fe" font-size="12" font-weight="600" font-family="Segoe UI,Arial,sans-serif">FAGLGVTR</text>
  <path d="M144 100 H184" stroke="#0f62fe" stroke-width="2"/>
  <polygon points="184,100 176,96 176,104" fill="#0f62fe"/>
  <rect x="184" y="70" width="140" height="60" fill="#fff" stroke="#0f62fe" rx="8"/>
  <text x="210" y="105" fill="#000" font-size="11" font-family="Segoe UI,Arial,sans-serif">GET/CALL BADI</text>
  <path d="M324 100 H364" stroke="#0f62fe" stroke-width="2"/>
  <polygon points="364,100 356,96 356,104" fill="#0f62fe"/>
  <rect x="364" y="70" width="160" height="60" fill="#fff" stroke="#198038" rx="8"/>
  <text x="400" y="105" fill="#000" font-size="11" font-family="Segoe UI,Arial,sans-serif">ZCL_IM_*</text>
  <path d="M524 100 H564" stroke="#0f62fe" stroke-width="2"/>
  <polygon points="564,100 556,96 556,104" fill="#0f62fe"/>
  <rect x="564" y="70" width="132" height="60" fill="#fff" stroke="#0f62fe" rx="8"/>
  <text x="600" y="105" fill="#000" font-size="11" font-family="Segoe UI,Arial,sans-serif">ACDOCA</text>
</svg>
